<svg width="350" height="120" viewBox="0 0 350 120" fill="none" xmlns="http://www.w3.org/2000/svg">
<g clip-path="url(#clip0_3857_41165)">
<path d="M248.154 52.4012C246.826 51.9216 245.224 51.6855 243.255 51.6855C241.285 51.6855 239.043 51.8807 237.668 52.4788C236.072 53.1703 235.07 54.2878 234.389 55.7484V52.0559H228.152V72.4529H234.841V62.7796C234.857 62.0818 234.841 61.3798 234.999 60.3841C235.362 58.0893 236.732 57.1313 238.541 56.8407C239.236 56.7294 239.882 56.6948 241.099 56.6948C241.765 56.6948 243.083 56.6843 244.056 57.1376C244.258 57.2299 244.777 57.5216 245.042 58.0935C245.459 58.9938 245.428 60.34 245.43 60.6831V61.2025H251.666C251.666 61.2025 251.686 60.3253 251.686 59.9518C251.686 58.743 251.636 57.7462 251.634 57.7074C251.591 55.1293 250.364 53.1997 248.153 52.4022L248.154 52.4012Z" fill="#231815"/>
<path d="M102.571 51.6656C98.5323 51.6656 94.8067 52.0853 92.922 52.8104C90.6783 53.6718 89.8398 55.401 89.7226 56.9802C89.6843 57.5132 89.7045 58.2309 89.7045 58.2309H96.0042C96.0042 58.2309 96.034 57.4912 96.3728 56.9424C96.6839 56.4409 97.3071 56.1334 98.0092 56.0054C98.8328 55.8459 100.297 55.7641 102.572 55.7641C104.601 55.7641 106.5 55.8795 107.605 56.1523C108.644 56.4104 109.266 56.7714 109.577 57.7651C109.735 58.2645 109.728 59.2508 109.728 59.8049H99.3665C94.6447 59.8049 92.3818 60.17 90.8306 61.2518C89.305 62.3137 89.1079 64.4049 89.1079 66.1068C89.1079 68.4761 89.7525 70.0039 91.2632 71.2168C93.0743 72.6722 95.5077 72.732 100.178 72.732C103.24 72.732 106.541 72.6585 107.808 72.1329C108.505 71.8412 109.22 71.4487 109.903 70.3774V72.4183H116.352V62.554C116.352 61.7912 116.433 58.4555 116.107 56.7808C115.828 55.3465 115.116 54.4305 114.369 53.8387C112.141 52.0759 106.538 51.6646 102.57 51.6646L102.571 51.6656ZM109.733 63.64V66.1436C109.73 66.8613 109.625 67.6524 108.868 68.0763C107.91 68.6094 104.534 68.6094 102.491 68.6094C99.1801 68.6094 96.9641 68.5254 96.2769 68.0826C95.6281 67.665 95.6281 67.1372 95.6281 66.1792V66.1467C95.6281 65.1919 95.6547 64.6305 96.2034 64.1573C96.751 63.6882 98.658 63.641 102.491 63.641H109.733V63.64Z" fill="#231815"/>
<path d="M192.552 44.2273H185.862V72.4519H192.552V44.2273Z" fill="#231815"/>
<path d="M262.021 44.2273H255.331V49.3048H262.021V44.2273Z" fill="#231815"/>
<path d="M262.021 52.1399H255.331V72.4519H262.021V52.1399Z" fill="#231815"/>
<path d="M144.885 52.6436C144.104 52.3656 141.779 51.6667 137.146 51.6667C132.514 51.6667 130.861 52.2816 129.793 52.7349C128.919 53.1032 127.758 54.0497 127.149 55.0276V52.056H120.788V80.2806H127.478V70.2463C128.131 70.9546 129.332 71.665 130.097 71.9388C131.51 72.4435 133.097 72.7699 137.146 72.7699C141.79 72.7699 144.105 72.1277 144.887 71.8507C147.39 70.9294 148.352 68.9243 148.879 66.4889C149.236 64.8352 149.236 63.0861 149.236 62.2477C149.236 61.4093 149.236 59.6581 148.879 58.0065C148.353 55.568 147.39 53.5638 144.886 52.6447L144.885 52.6436ZM142.495 63.7534C142.334 66.3157 141.725 67.4238 138.668 67.6903C138.072 67.7428 136.207 67.8257 134.629 67.8173C133.209 67.8099 131.67 67.7144 131.332 67.6903C128.352 67.4721 127.478 66.2969 127.391 63.7492C127.372 63.2351 127.356 62.7513 127.356 62.2477C127.356 61.744 127.373 61.2572 127.391 60.7357C127.479 58.1943 128.352 57.0202 131.332 56.8009C131.672 56.7767 133.13 56.6938 134.629 56.6928C136.279 56.6907 138.373 56.7767 138.668 56.8009C141.725 57.0695 142.334 58.1754 142.495 60.7388C142.545 61.5373 142.551 61.9486 142.551 62.2477C142.551 62.5467 142.544 62.9539 142.495 63.7545V63.7534Z" fill="#231815"/>
<path d="M301.904 71.8664C302.684 72.1413 305.012 72.7688 309.643 72.7688C314.274 72.7688 315.907 72.3134 317.002 71.8139C318.005 71.3554 319.311 70.3764 319.641 69.8549V72.4519H326V44.2273H319.311V54.5491C318.554 53.5963 317.329 52.8303 316.563 52.5565C315.15 52.0518 313.692 51.6646 309.643 51.6646C304.999 51.6646 302.685 52.3812 301.902 52.6583C299.398 53.5774 298.436 55.5826 297.909 58.0211C297.552 59.6727 297.552 61.4208 297.552 62.2613C297.552 63.1017 297.552 64.8488 297.909 66.5004C298.435 68.9399 299.397 70.943 301.903 71.8653L301.904 71.8664ZM304.295 60.7545C304.455 58.1911 305.063 57.0831 308.121 56.8166C308.717 56.7662 310.581 56.6833 312.16 56.6896C313.58 56.699 315.118 56.7924 315.458 56.8166C318.438 57.0348 319.311 58.2121 319.398 60.7597C319.416 61.2739 319.433 61.7566 319.433 62.2623C319.433 62.7681 319.416 63.2528 319.398 63.7733C319.311 66.3125 318.438 67.4898 315.458 67.706C315.116 67.7333 313.66 67.8162 312.16 67.8162C310.51 67.8172 308.417 67.7333 308.121 67.7091C305.063 67.4395 304.455 66.3346 304.295 63.7712C304.245 62.9716 304.238 62.5614 304.238 62.2634C304.238 61.9654 304.245 61.5551 304.295 60.7556V60.7545Z" fill="#231815"/>
<path d="M223.77 57.4441C223.448 55.8954 222.623 54.7055 221.598 53.8713C220.757 53.1861 219.549 52.6384 218.191 52.3792C216.317 52.0246 214.042 51.6804 210.321 51.6804C206.601 51.6804 204.678 51.9711 202.9 52.3614C199.605 53.0833 197.631 54.8629 196.887 57.8733C196.657 58.805 196.421 60.2509 196.421 62.0756C196.421 63.9003 196.568 65.4029 196.825 66.4071C197.627 69.5465 199.491 71.3062 202.866 72.1949C204.217 72.5485 206.59 72.7353 210.319 72.7353C214.655 72.7353 217.712 72.2988 217.741 72.2914C219.504 71.9504 221.407 71.4572 222.794 69.918C223.687 68.9274 224.041 67.3283 224.078 65.5446C224.078 65.5005 224.078 65.4113 224.08 65.3095H217.539V65.3977C217.539 65.3977 217.532 65.5645 217.528 65.6694C217.484 66.7208 216.849 67.3787 215.475 67.7995C214.078 68.2255 212.271 68.2601 210.077 68.2601C208.112 68.2601 206.804 68.0975 205.654 67.7554C204.145 67.3052 203.416 66.2224 203.28 64.5121C203.245 64.0588 203.264 63.6401 203.264 63.6401H224.117C224.134 63.2592 224.134 62.552 224.134 62.2907C224.134 60.0316 223.998 58.5385 223.769 57.4452L223.77 57.4441ZM203.266 59.806V59.4808C203.267 57.5648 204.535 56.2521 206.698 56.0097C207.824 55.8849 208.762 55.8366 210.444 55.8366C212.69 55.8366 214.348 55.9394 215.216 56.1514C216.713 56.5155 217.447 57.6036 217.455 59.4818C217.455 59.4818 217.457 59.6434 217.463 59.806H203.266Z" fill="#231815"/>
<path d="M289.013 52.2901C287.091 51.6783 284.888 51.7214 282.448 51.7214C281.177 51.7214 278.589 51.8567 276.957 52.3635C275.187 52.9112 273.73 53.9899 272.807 55.4264V52.14H266.448V72.452H273.137V64.9171C273.137 63.6076 273.164 62.0778 273.219 60.3769C273.27 58.7662 274.734 57.4106 276.948 56.9174C277.966 56.6928 279.218 56.6928 280.132 56.6928C283.508 56.6928 284.966 56.9363 285.876 57.8261C286.564 58.4987 286.836 59.9152 286.836 61.5636V72.452H293.525V59.9509C293.525 58.4305 293.506 57.3623 293.203 56.3739C292.586 54.3509 291.236 52.9994 289.013 52.2901Z" fill="#231815"/>
<path d="M177.421 52.6436C176.642 52.3656 174.314 51.6667 169.682 51.6667C165.05 51.6667 163.395 52.2816 162.33 52.7349C161.456 53.1032 160.295 54.0497 159.684 55.0276V52.056H153.325V80.2806H160.014V70.2463C160.667 70.9546 161.867 71.665 162.632 71.9388C164.047 72.4435 165.634 72.7699 169.682 72.7699C174.325 72.7699 176.642 72.1277 177.422 71.8507C179.926 70.9294 180.889 68.9243 181.414 66.4889C181.772 64.8352 181.772 63.0861 181.772 62.2477C181.772 61.4093 181.772 59.6581 181.415 58.0065C180.889 55.568 179.926 53.5638 177.421 52.6447V52.6436ZM175.03 63.7534C174.872 66.3157 174.262 67.4238 171.205 67.6903C170.609 67.7428 168.743 67.8257 167.165 67.8173C165.745 67.8099 164.206 67.7144 163.868 67.6903C160.887 67.4721 160.014 66.2969 159.927 63.7492C159.909 63.2351 159.892 62.7513 159.892 62.2477C159.892 61.744 159.909 61.2572 159.927 60.7357C160.014 58.1943 160.887 57.0202 163.868 56.8009C164.209 56.7767 165.665 56.6938 167.165 56.6928C168.814 56.6907 170.907 56.7767 171.205 56.8009C174.262 57.0695 174.872 58.1754 175.03 60.7388C175.079 61.5373 175.088 61.9486 175.088 62.2477C175.088 62.5467 175.079 62.9539 175.03 63.7545V63.7534Z" fill="#231815"/>
<path d="M74.213 75.9585C73.3532 77.9374 71.1798 79.6625 71.1798 79.6625C62.873 87.0861 51.3306 86.7273 51.3306 86.7273C39.7274 86.8542 33.5002 79.9447 33.5002 79.9447C26.7649 72.7236 27.0909 62.5749 27.0909 62.5749C27.3082 48.7853 36.201 45.563 36.201 45.563C40.3688 43.7309 45.9429 46.5304 45.9429 46.5304C47.9117 47.4223 49.4725 47.4223 49.4725 47.4223C51.6598 47.5555 53.3985 46.6049 53.3985 46.6049C57.7165 44.1874 61.1534 44.6669 61.1534 44.6669C71.7082 45.1936 71.4802 59.4649 71.4802 59.4649C71.6028 68.4079 68.6261 71.7005 68.6261 71.7005C62.824 80.355 51.4115 80.0297 51.4115 80.0297C32.6479 80.355 35.126 64.3398 35.126 64.3398C37.1215 51.4578 49.986 51.8586 49.986 51.8586C63.2533 51.8293 63.101 62.6767 63.101 62.6767C63.5516 73.1191 55.2384 72.4161 55.2384 72.4161C50.2769 72.2829 50.8565 66.7311 50.8565 66.7311C50.8565 66.7311 52.12 66.8707 54.2785 66.8172C60.2393 66.6829 59.8899 61.9149 59.8899 61.9149C59.6097 56.7147 54.4681 57.0673 54.4681 57.0673C51.2123 56.9319 49.3852 59.383 49.3852 59.383C47.6763 56.6171 44.1871 57.1449 44.1871 57.1449C39.3631 57.7388 39.476 62.8383 39.476 62.8383L41.9988 62.8278C41.9275 58.7944 47.1372 58.5929 47.5974 61.7638C47.7573 62.8824 47.6188 64.3461 47.6188 64.3461C38.0505 63.9579 39.216 70.5421 39.216 70.5421C39.7008 75.0152 44.5664 74.8977 44.5664 74.8977C48.0673 74.9229 49.3734 72.0961 49.3734 72.0961V72.0762C51.1218 75.1401 55.7498 74.9166 55.7498 74.9166C67.1814 74.7718 66.1075 62.4931 66.1075 62.4931C65.3628 48.1883 50.0702 48.9081 50.0702 48.9081C40.9388 48.8524 36.8733 53.7169 36.8733 53.7169C31.8542 58.6212 31.9054 65.9148 31.9054 65.9148C31.4526 83.1471 50.3227 83.1104 50.3227 83.1104C50.3227 83.1104 63.3428 83.8848 70.3786 74.819C75.9549 67.6262 74.9736 59.0588 74.9736 59.0588C74.425 40.2546 60.5355 41.2871 60.5355 41.2871C55.6784 41.199 51.7397 43.5924 51.7397 43.5924C51.1196 43.9764 50.7521 44.3122 50.7521 44.3122C50.7521 44.3122 51.7929 37.4846 60.2521 34.4091L58.5443 31C58.5443 31 51.11 34.9946 49.1039 44.3091L48.0311 43.6459C44.1744 40.9755 39.5591 41.3585 39.5591 41.3585C31.8095 41.3585 28.3289 47.4223 28.3289 47.4223C23.5176 54.6036 24.0151 62.4049 24.0151 62.4049C23.8649 74.9197 31.0733 81.611 31.0733 81.611C39.2672 89.5886 51.436 88.9895 51.436 88.9895C67.0578 88.8783 73.3766 79.1756 73.3766 79.1756C75.1057 76.4559 74.214 75.9585 74.214 75.9585M53.9802 59.3085C56.9079 59.0756 57.3585 61.2665 57.3585 61.2665C57.758 62.9883 56.5957 64.0219 56.0769 64.2832C54.5683 65.0166 50.751 64.343 50.751 64.343C50.4761 59.7209 53.9802 59.3075 53.9802 59.3075M45.4028 72.2168C42.5848 72.9733 41.7069 70.9083 41.7069 70.9083C40.9803 69.284 41.9797 68.1403 42.3664 67.7206C43.778 66.2317 47.6241 66.6808 47.6241 66.6808C48.2601 71.2053 45.4028 72.2178 45.4028 72.2178" fill="#E60012"/>
</g>
<defs>
<clipPath id="clip0_3857_41165">
<rect width="302" height="58" fill="white" transform="translate(24 31)"/>
</clipPath>
</defs>
</svg>
